<?xml version="1.0" encoding="UTF-8"?>
<svg version="1.1" xmlns="http://www.w3.org/2000/svg" width="980" height="980">
<path d="M0 0 C323.4 0 646.8 0 980 0 C980 323.4 980 646.8 980 980 C656.6 980 333.2 980 0 980 C0 656.6 0 333.2 0 0 Z " fill="#FEFEFE" transform="translate(0,0)"/>
<path d="M0 0 C2.0625 0.4375 2.0625 0.4375 4 1 C4 1.66 4 2.32 4 3 C4.99 3.33 5.98 3.66 7 4 C21.957366 21.00209956 27.29018077 40.95454327 26.484375 63.30078125 C25.54993577 77.48962748 19.86928226 90.67168136 10 101 C3.93167242 106.30978663 -2.65455579 112 -11 112 C-11 112.66 -11 113.32 -11 114 C-13.1021486 114.48794398 -15.2068695 114.96480744 -17.3125 115.4375 C-18.48425781 115.70433594 -19.65601563 115.97117187 -20.86328125 116.24609375 C-29.20022397 117.91256217 -37.70054677 118.14824854 -46.17701721 118.13130188 C-47.13899503 118.13341759 -48.10097285 118.13553331 -49.09210151 118.13771313 C-52.28219731 118.1436551 -55.4722529 118.14271719 -58.66235352 118.1418457 C-60.96299302 118.14488094 -63.26363193 118.1484034 -65.56427002 118.15237427 C-70.50232064 118.16023365 -75.44036413 118.16539688 -80.37841988 118.16866493 C-88.19101779 118.17459749 -96.0035707 118.19115745 -103.81614685 118.21000671 C-106.49526685 118.21636161 -109.17438695 118.22267025 -111.85350704 118.22898388 C-112.52283376 118.23056764 -113.19216048 118.2321514 -113.88176982 118.23378316 C-121.48229336 118.25168077 -129.08281987 118.26792786 -136.68334961 118.28295898 C-137.72427588 118.28502279 -137.72427588 118.28502279 -138.78623097 118.28712829 C-150.04022971 118.30907486 -161.29421716 118.31982068 -172.54823352 118.32732973 C-184.12678893 118.33541098 -195.70524298 118.35899233 -207.28374428 118.3952834 C-213.77516679 118.41503006 -220.26642097 118.42745286 -226.75787544 118.42244911 C-232.86064869 118.4178015 -238.96310233 118.43161482 -245.06581116 118.45946121 C-247.3014515 118.46636914 -249.53712492 118.46650388 -251.77276421 118.45926094 C-254.83220976 118.4503519 -257.89060581 118.46609989 -260.94996643 118.48774719 C-262.26657811 118.47508339 -262.26657811 118.47508339 -263.609788 118.46216375 C-274.41548236 118.60287772 -283.14679093 123.36554341 -291.0625 130.5 C-298.05503489 137.6930856 -300.56176971 147.29731208 -302 157 C-313.13446704 151.60147053 -320.06639088 137.84636791 -324.15625 126.72265625 C-329.94898052 108.03037305 -330.62260728 86.80309594 -322.375 68.75 C-317.06321412 58.91335948 -308.87088585 49.62362862 -298 46 C-297.67 45.34 -297.34 44.68 -297 44 C-294.5859375 43 -294.5859375 43 -291.375 42 C-289.83972656 41.505 -289.83972656 41.505 -288.2734375 41 C-274.2646299 37.40377633 -259.92250253 37.71077716 -245.57641602 37.72875977 C-243.24238403 37.72436502 -240.90835361 37.71906016 -238.57432556 37.71292114 C-233.57685451 37.70148307 -228.57942552 37.69596634 -223.5819416 37.69503975 C-216.34799074 37.69325466 -209.11411863 37.67851915 -201.8801943 37.65954458 C-190.12790264 37.62881124 -178.37560905 37.60459267 -166.62329102 37.58666992 C-165.92210571 37.58559724 -165.2209204 37.58452456 -164.49848705 37.58341938 C-156.66657529 37.571586 -148.83466277 37.5613786 -141.00274658 37.55297852 C-138.15653481 37.54990388 -135.31032306 37.54681521 -132.46411133 37.54370117 C-131.76167046 37.54293583 -131.05922959 37.54217049 -130.33550263 37.54138196 C-118.61446813 37.52829178 -106.89348942 37.50364857 -95.17249626 37.46995777 C-87.31606672 37.44819278 -79.45977977 37.44012231 -71.60332215 37.44235051 C-66.72017393 37.44068385 -61.83711901 37.42663704 -56.95400429 37.40913773 C-54.69171578 37.40353961 -52.42940793 37.4030517 -50.16711807 37.40807533 C-47.07669867 37.41421842 -43.98686785 37.4019819 -40.89649963 37.38526917 C-39.55773288 37.39458689 -39.55773288 37.39458689 -38.19192034 37.40409285 C-28.4423493 37.30816175 -19.97844583 33.66956415 -12.859375 26.9921875 C-6.04849685 19.75247628 -3.00193986 12.70333673 -1.39453125 2.96875 C-1 1 -1 1 0 0 Z " fill="#F18229" transform="translate(641,283)"/>
<path d="M0 0 C10.17188997 4.73111161 17.40358255 16.53331955 21.45703125 26.62890625 C27.76968597 44.27099798 29.79905686 67.23867132 21.76953125 84.578125 C13.78548962 100.01746378 3.17229397 109.58394292 -13.390625 115.13671875 C-20.84573168 117.05668969 -28.24441668 118.12134088 -35.94914246 118.13803101 C-36.94384228 118.14226293 -36.94384228 118.14226293 -37.95863706 118.14658034 C-40.1614831 118.15485549 -42.36427842 118.15625846 -44.56713867 118.15771484 C-46.15459329 118.16238836 -47.74204659 118.1675328 -49.32949829 118.17311096 C-52.7397518 118.18435665 -56.14999674 118.19280783 -59.56026268 118.19923019 C-64.96194542 118.20995386 -70.3635665 118.23021075 -75.76521301 118.25234985 C-91.12282479 118.31412597 -106.48043246 118.36823396 -121.83813477 118.40136719 C-130.32656956 118.41976025 -138.81490041 118.4487534 -147.30325872 118.4893719 C-151.78828566 118.51036074 -156.2731821 118.52588762 -160.75826073 118.52817917 C-164.98140083 118.53033958 -169.20426909 118.54634966 -173.4273262 118.57256889 C-174.96871882 118.57971015 -176.51014455 118.58188827 -178.05154991 118.57846642 C-191.85288783 118.55274343 -205.06859964 119.94255399 -216 129 C-216.66 129 -217.32 129 -218 129 C-218.27070313 129.58265625 -218.54140625 130.1653125 -218.8203125 130.765625 C-219.99428203 132.98916993 -221.30979861 134.78741587 -222.875 136.75 C-225.83519955 140.65142805 -228.04173166 144.52046117 -230 149 C-230.350625 149.71800781 -230.70125 150.43601562 -231.0625 151.17578125 C-240.31488648 172.50389273 -237.04462796 201.962941 -232 224 C-231.72675001 225.62459538 -231.45567049 227.24955844 -231.1875 228.875 C-230.05403711 234.60094182 -228.04798767 240.08333615 -226.11987305 245.58154297 C-224.68456837 249.71540013 -223.5628728 253.63599851 -223 258 C-224.69668107 256.35805058 -226.3537973 254.69225032 -228 253 C-228.66644531 252.31808594 -229.33289063 251.63617187 -230.01953125 250.93359375 C-236.38337878 244.16852291 -241.1801808 236.88365114 -246 229 C-246.54527344 228.15695312 -247.09054687 227.31390625 -247.65234375 226.4453125 C-257.78604311 210.47868805 -263.94303208 191.36454146 -268 173 C-268.19335938 172.17628906 -268.38671875 171.35257813 -268.5859375 170.50390625 C-273.05287546 150.27320895 -273.42320416 126.05273475 -268 106 C-267.83371094 105.35208496 -267.66742188 104.70416992 -267.49609375 104.03662109 C-263.67517708 89.36500865 -257.22024144 76.30026695 -247 65 C-246.35160156 64.28199219 -245.70320313 63.56398438 -245.03515625 62.82421875 C-240.49193714 58.04709133 -235.64681865 54.37890937 -230 51 C-229.15566406 50.484375 -228.31132812 49.96875 -227.44140625 49.4375 C-211.72768159 40.3148732 -194.83205433 38.68073054 -176.9987793 38.79223633 C-175.43663637 38.7944034 -173.87449182 38.79558491 -172.31234741 38.79586792 C-168.9742021 38.79790751 -165.6361348 38.80554134 -162.29800987 38.8173008 C-157.00395699 38.83461606 -151.71003855 38.83116795 -146.41596985 38.82365417 C-131.37041842 38.80456854 -116.32504471 38.79771004 -101.27954102 38.84545898 C-92.94990191 38.87172428 -84.6206502 38.87281829 -76.29100734 38.84631175 C-71.89732538 38.83340556 -67.50448493 38.83309029 -63.11087608 38.8641758 C-58.97433564 38.89339081 -54.83907862 38.88941963 -50.70254135 38.86156845 C-49.19827125 38.85712541 -47.69390693 38.86427284 -46.18977165 38.88489723 C-33.73107689 39.04479761 -21.48494049 36.24920868 -11.875 27.75 C-4.91556219 19.55170939 -1.89287981 10.44404736 0 0 Z " fill="#78797C" transform="translate(584,440)"/>
<path d="M0 0 C0.33 0 0.66 0 1 0 C1.35870303 3.85605758 1.33442938 5.52532604 -0.9375 8.75 C-1.618125 9.4925 -2.29875 10.235 -3 11 C-3.33 11.66 -3.66 12.32 -4 13 C-4.66 13 -5.32 13 -6 13 C-7.7026962 20.83763862 -8.31923516 28.3016216 -8.25 36.3125 C-8.24613281 37.40103271 -8.24226563 38.48956543 -8.23828125 39.61108398 C-8.15311601 47.55570005 -7.56383936 55.19476607 -6 63 C-5.34 63 -4.68 63 -4 63 C-3.01 65.97 -2.02 68.94 -1 72 C0.65 72.33 2.3 72.66 4 73 C4 75.64 4 78.28 4 81 C6.31 81 8.62 81 11 81 C11.33 78.03 11.66 75.06 12 72 C13.32 72 14.64 72 16 72 C16 72.99 16 73.98 16 75 C17.98 74.01 17.98 74.01 20 73 C19.979375 71.88625 19.95875 70.7725 19.9375 69.625 C20 66 20 66 21 64 C22.85546875 63.4375 22.85546875 63.4375 25.1875 63 C28.90789245 62.2345604 32.48813273 61.49254359 36 60 C36.33 59.01 36.66 58.02 37 57 C42.68350993 54.72272989 48.1220677 54.72181225 54.18089294 54.75949097 C55.1914278 54.75778212 56.20196265 54.75607327 57.24311978 54.75431263 C60.62105554 54.75102473 63.9987916 54.76201005 67.37670898 54.77294922 C69.80135595 54.77351348 72.22600326 54.77319648 74.65065002 54.77206421 C79.86655537 54.77160913 85.08241577 54.7772731 90.29830742 54.78853989 C97.83953438 54.80481897 105.38073717 54.81000535 112.92197979 54.81251587 C125.15820535 54.8168892 137.39440418 54.83018846 149.63061523 54.84912109 C161.51440294 54.86748928 173.39818338 54.88164119 185.28198242 54.89013672 C186.38142519 54.89092489 186.38142519 54.89092489 187.50307893 54.89172898 C191.18026597 54.89433913 194.85745307 54.89686653 198.53464019 54.89935279 C229.02311259 54.920074 259.51155258 54.95543871 290 55 C290 54.34 290 53.68 290 53 C292.41575607 52.49521515 294.83244361 51.99602358 297.25 51.5 C297.93191406 51.35691406 298.61382813 51.21382813 299.31640625 51.06640625 C302.64633121 50.38748951 305.58332551 50 309 50 C309.309375 49.360625 309.61875 48.72125 309.9375 48.0625 C311 46 311 46 312 45 C313.66617115 44.95936168 315.33388095 44.957279 317 45 C317 44.34 317 43.68 317 43 C318.65 42.67 320.3 42.34 322 42 C322 41.34 322 40.68 322 40 C322.99 40.33 323.98 40.66 325 41 C322.10594993 44.1397713 319.24639844 46.21212393 315.5 48.25 C314.5615625 48.77078125 313.623125 49.2915625 312.65625 49.828125 C310 51 310 51 306 51 C306 51.66 306 52.32 306 53 C303.8978514 53.48794398 301.7931305 53.96480744 299.6875 54.4375 C298.51574219 54.70433594 297.34398437 54.97117187 296.13671875 55.24609375 C287.79977603 56.91256217 279.29945323 57.14824854 270.82298279 57.13130188 C269.86100497 57.13341759 268.89902715 57.13553331 267.90789849 57.13771313 C264.71780269 57.1436551 261.5277471 57.14271719 258.33764648 57.1418457 C256.03700698 57.14488094 253.73636807 57.1484034 251.43572998 57.15237427 C246.49767936 57.16023365 241.55963587 57.16539688 236.62158012 57.16866493 C228.80898221 57.17459749 220.9964293 57.19115745 213.18385315 57.21000671 C210.50473315 57.21636161 207.82561305 57.22267025 205.14649296 57.22898388 C204.14250288 57.23135952 204.14250288 57.23135952 203.11823018 57.23378316 C195.51770664 57.25168077 187.91718013 57.26792786 180.31665039 57.28295898 C179.27572412 57.28502279 179.27572412 57.28502279 178.21376903 57.28712829 C166.95977029 57.30907486 155.70578284 57.31982068 144.45176648 57.32732973 C132.87321107 57.33541098 121.29475702 57.35899233 109.71625572 57.3952834 C103.22483321 57.41503006 96.73357903 57.42745286 90.24212456 57.42244911 C84.13935131 57.4178015 78.03689767 57.43161482 71.93418884 57.45946121 C69.6985485 57.46636914 67.46287508 57.46650388 65.22723579 57.45926094 C62.16779024 57.4503519 59.10939419 57.46609989 56.05003357 57.48774719 C54.73342189 57.47508339 54.73342189 57.47508339 53.390212 57.46216375 C42.58451764 57.60287772 33.85320907 62.36554341 25.9375 69.5 C18.94496511 76.6930856 16.43823029 86.29731208 15 96 C3.86553296 90.60147053 -3.06639088 76.84636791 -7.15625 65.72265625 C-13.45122503 45.40970443 -13.41256022 23.38064898 -3.40234375 4.328125 C-2 2 -2 2 0 0 Z " fill="#DF884F" transform="translate(324,344)"/>
<path d="M0 0 C0 0.33 0 0.66 0 1 C-6.38226945 1.82351864 -12.56744599 2.12086218 -19 2 C-19 2.99 -19 3.98 -19 5 C-97.21 4.67 -175.42 4.34 -256 4 C-256 4.66 -256 5.32 -256 6 C-261.94 6.495 -261.94 6.495 -268 7 C-261.51963903 2.13972927 -256.27684346 1.70589639 -248.46463013 1.73498535 C-247.51115783 1.73060408 -246.55768553 1.72622281 -245.57532012 1.72170877 C-242.38366164 1.70939773 -239.19216774 1.71119634 -236.00048828 1.71289062 C-233.71031959 1.70686551 -231.42015311 1.69994103 -229.12998962 1.69218445 C-224.19786047 1.67729445 -219.26577181 1.6685458 -214.33362198 1.66447449 C-206.52395851 1.65775518 -198.71438131 1.63599108 -190.90475464 1.61193848 C-179.94432381 1.5795858 -168.983896 1.55274438 -158.0234375 1.53173828 C-157.328233 1.53040329 -156.63302851 1.5290683 -155.91675721 1.52769285 C-150.98617182 1.51827215 -146.05558597 1.50911208 -141.125 1.5 C-135.51009077 1.4896135 -129.89518183 1.47909117 -124.28027344 1.46826172 C-123.58895227 1.46693098 -122.8976311 1.46560023 -122.1853608 1.46422917 C-110.61826462 1.4417229 -99.05120165 1.41140873 -87.48413837 1.37586927 C-79.73283116 1.35261744 -71.98158348 1.33880349 -64.23024487 1.33237457 C-59.38823977 1.32640182 -54.54628232 1.31227519 -49.70430183 1.29603004 C-47.47279421 1.29019379 -45.24127484 1.28767348 -43.0097599 1.28886986 C-31.98090021 1.2930939 -21.26607773 1.10739636 -10.36468315 -0.67024994 C-6.71846178 -1.02759168 -3.59354136 -0.65389386 0 0 Z " fill="#FEF3D7" transform="translate(628,399)"/>
<path d="M0 0 C-5.0354957 4.22981639 -11.46255108 7.11642412 -18.07211113 7.13587189 C-18.90404893 7.14072963 -19.73598673 7.14558738 -20.59313476 7.15059233 C-21.50703133 7.15088831 -22.4209279 7.1511843 -23.36251831 7.15148926 C-24.81889967 7.15783787 -24.81889967 7.15783787 -26.30470288 7.16431475 C-29.57276566 7.17737767 -32.84080403 7.183374 -36.10888672 7.18945312 C-38.44601593 7.19739267 -40.78314366 7.20578039 -43.12026978 7.21458435 C-48.16050665 7.23266395 -53.2007402 7.24767156 -58.2409935 7.26036072 C-65.53382544 7.27884453 -72.82662572 7.30331702 -80.11943282 7.32973462 C-91.958355 7.372538 -103.79728605 7.41164866 -115.63623047 7.44775391 C-116.34498873 7.44991671 -117.05374699 7.45207951 -117.78398277 7.45430785 C-122.81432156 7.46963432 -127.84466074 7.48483024 -132.875 7.5 C-138.61767607 7.51732111 -144.36035193 7.5347071 -150.10302734 7.55224609 C-150.8103171 7.55440496 -151.51760687 7.55656383 -152.24632965 7.55878812 C-164.03814085 7.59490008 -175.82993604 7.63485506 -187.6217252 7.67754889 C-195.54416578 7.706029 -203.46660555 7.72950978 -211.38907218 7.74947357 C-216.31465992 7.76285088 -221.24022735 7.78026409 -226.16579819 7.79878426 C-228.45352668 7.80654698 -230.74126164 7.81261364 -233.02899933 7.81687737 C-236.1472057 7.8229166 -239.26533296 7.83496159 -242.3835144 7.84851074 C-243.7476671 7.84895472 -243.7476671 7.84895472 -245.13937843 7.84940767 C-249.23730418 7.87318669 -252.99477048 8.0308863 -257 9 C-258.60303627 9.06371368 -260.20837672 9.08644214 -261.8125 9.0625 C-262.60269531 9.05347656 -263.39289063 9.04445313 -264.20703125 9.03515625 C-264.79871094 9.02355469 -265.39039063 9.01195312 -266 9 C-264 6 -264 6 -261 5 C-259.58293357 4.91062444 -258.16201318 4.8762383 -256.74213123 4.87695217 C-255.43212327 4.8739656 -255.43212327 4.8739656 -254.09565049 4.87091869 C-253.13554289 4.87383153 -252.17543529 4.87674437 -251.18623352 4.87974548 C-250.16686571 4.87889106 -249.1474979 4.87803663 -248.09724015 4.87715632 C-244.66547647 4.87550304 -241.23376117 4.88102044 -237.80200195 4.88647461 C-235.34838868 4.88675654 -232.89477533 4.88659863 -230.44116211 4.8860321 C-225.15044337 4.88580404 -219.85973982 4.88864908 -214.56902504 4.89426994 C-206.91950895 4.90239151 -199.26999883 4.90500084 -191.62047889 4.90625793 C-179.21011732 4.90844742 -166.79976231 4.9151047 -154.3894043 4.92456055 C-142.33276401 4.93373734 -130.2761255 4.94081687 -118.21948242 4.94506836 C-117.47650869 4.94533108 -116.73353497 4.94559381 -115.96804688 4.94586449 C-112.24082505 4.94716951 -108.51360321 4.94843323 -104.78638136 4.94967639 C-73.8575828 4.96004578 -42.9287924 4.97773555 -12 5 C-11.67 4.01 -11.34 3.02 -11 2 C-7.55152617 -0.52003857 -4.13426005 -0.15901 0 0 Z " fill="#FEF9F0" transform="translate(624,314)"/>
<path d="M0 0 C2.34701025 0.00056512 4.69402084 0.0002456 7.04103088 -0.00088501 C13.37055075 -0.00145561 19.69999383 0.01025101 26.02949595 0.02426291 C31.98677968 0.03554475 37.9440607 0.03751387 43.90135366 0.03956665 C55.68945846 0.04392806 67.47753534 0.05719466 79.265625 0.07617188 C90.70670432 0.09457113 102.14777603 0.10870775 113.58886719 0.1171875 C114.64931333 0.11797567 114.64931333 0.11797567 115.73118263 0.11877976 C119.27833202 0.12139012 122.82548147 0.12391747 126.37263095 0.12640357 C155.7315929 0.14708761 185.0905276 0.18242063 214.44946289 0.22705078 C214.11946289 0.88705078 213.78946289 1.54705078 213.44946289 2.22705078 C212.21386596 2.23036093 210.97826902 2.23367107 209.70522976 2.23708153 C180.37044408 2.31611011 151.03570776 2.40533417 121.70099306 2.50710239 C118.08988756 2.51962117 114.47878176 2.53205396 110.86767578 2.54443359 C109.7893228 2.54813258 109.7893228 2.54813258 108.68918491 2.5519063 C97.05094562 2.59162303 85.41269663 2.62437518 73.77442914 2.6545506 C61.83126514 2.68567168 49.88814229 2.7242839 37.94502455 2.76984084 C31.23728331 2.7952128 24.52956777 2.81712962 17.8217907 2.83039474 C11.50913038 2.8432179 5.19656989 2.86527536 -1.11603546 2.89443398 C-3.43355417 2.9035077 -5.75108895 2.9091995 -8.0686245 2.91126442 C-11.23235098 2.91458832 -14.39579466 2.93006972 -17.5594635 2.94857788 C-18.93545647 2.94567578 -18.93545647 2.94567578 -20.33924729 2.94271505 C-25.4758206 2.98764761 -29.67531811 3.60553843 -34.55053711 5.22705078 C-36.00286285 5.45648986 -37.46150167 5.6535633 -38.92553711 5.78955078 C-42.35423081 5.82498219 -42.35423081 5.82498219 -43.55053711 7.22705078 C-46.22112562 7.36820239 -48.87485949 7.26952185 -51.55053711 7.22705078 C-37.45262734 -2.17155573 -16.13407219 -0.05475946 0 0 Z " fill="#E0A163" transform="translate(395.550537109375,320.77294921875)"/>
<path d="M0 0 C2.0625 0.4375 2.0625 0.4375 4 1 C4 1.66 4 2.32 4 3 C4.99 3.33 5.98 3.66 7 4 C15.06730006 13.17013321 20.8569379 22.92092272 23 35 C22.34 35 21.68 35 21 35 C20.505 31.535 20.505 31.535 20 28 C19.01 27.67 18.02 27.34 17 27 C15.3125 23.9375 15.3125 23.9375 14 21 C12.06318839 20.91892417 10.1254066 20.86077525 8.1875 20.8125 C7.10855469 20.77769531 6.02960937 20.74289062 4.91796875 20.70703125 C1.64076507 21.03606776 1.05485554 21.58554474 -1 24 C-3.1875 23.6875 -3.1875 23.6875 -5 23 C-5.33 24.65 -5.66 26.3 -6 28 C-5.34 28.33 -4.68 28.66 -4 29 C-5.65 31.31 -7.3 33.62 -9 36 C-9.969375 35.731875 -10.93875 35.46375 -11.9375 35.1875 C-16.43792169 34.51565791 -19.36214798 36.37818697 -23.1796875 38.578125 C-25.29361416 39.95922378 -25.29361416 39.95922378 -26 43 C-27.98 42.67 -29.96 42.34 -32 42 C-32 39 -32 39 -31 37 C-29.08358274 36.29395154 -27.1665701 35.58946298 -25.24609375 34.89453125 C-16.12147067 31.26055093 -8.87123298 24.44813568 -4.625 15.5625 C-2.98541761 11.46715543 -2.11176334 7.31236119 -1.39453125 2.96875 C-1 1 -1 1 0 0 Z " fill="#EF9327" transform="translate(641,283)"/>
<path d="M0 0 C0.78375 0.185625 1.5675 0.37125 2.375 0.5625 C4.97089775 1.25962266 4.97089775 1.25962266 7 0 C7.22042969 0.98613281 7.22042969 0.98613281 7.4453125 1.9921875 C9.1879457 9.38335592 11.42752544 16.5172787 13.93017578 23.67919922 C15.34373632 27.77915624 16.43725467 31.67646877 17 36 C15.30331893 34.35805058 13.6462027 32.69225032 12 31 C11.33355469 30.31808594 10.66710937 29.63617187 9.98046875 28.93359375 C5.47786172 24.14710957 1.60895944 19.20220092 -1.9375 13.6875 C-2.31487305 13.10105713 -2.69224609 12.51461426 -3.08105469 11.91040039 C-5.08634322 8.70733127 -6.72494074 5.55814966 -8 2 C-5.66666667 2 -3.33333333 2 -1 2 C-0.67 1.34 -0.34 0.68 0 0 Z " fill="#595A5B" transform="translate(344,662)"/>
<path d="M0 0 C0.99 0.33 1.98 0.66 3 1 C0.10594993 4.1397713 -2.75360156 6.21212393 -6.5 8.25 C-7.4384375 8.77078125 -8.376875 9.2915625 -9.34375 9.828125 C-12 11 -12 11 -16 11 C-16 11.66 -16 12.32 -16 13 C-25.55120896 15.39653063 -34.22322062 16.42756554 -44.07373047 16.34057617 C-45.41567974 16.33972702 -46.75763039 16.34021064 -48.09957886 16.34190369 C-51.6938031 16.34275386 -55.28771838 16.32528968 -58.8818717 16.30418181 C-62.65610472 16.28524905 -66.43034718 16.28365165 -70.20462036 16.28010559 C-77.32991402 16.27083334 -84.45506727 16.2462859 -91.5802995 16.21605712 C-99.70136872 16.18236171 -107.82244515 16.1659893 -115.94356704 16.15097082 C-132.62912648 16.11973119 -149.31454524 16.06706604 -166 16 C-166 15.67 -166 15.34 -166 15 C-121.78 15 -77.56 15 -32 15 C-32 14.34 -32 13.68 -32 13 C-29.58424393 12.49521515 -27.16755639 11.99602358 -24.75 11.5 C-24.06808594 11.35691406 -23.38617187 11.21382813 -22.68359375 11.06640625 C-19.35366879 10.38748951 -16.41667449 10 -13 10 C-12.690625 9.360625 -12.38125 8.72125 -12.0625 8.0625 C-11 6 -11 6 -10 5 C-8.33382885 4.95936168 -6.66611905 4.957279 -5 5 C-5 4.34 -5 3.68 -5 3 C-3.35 2.67 -1.7 2.34 0 2 C0 1.34 0 0.68 0 0 Z " fill="#DE8336" transform="translate(646,384)"/>
<path d="M0 0 C0 0.99 0 1.98 0 3 C-63.69 2.67 -127.38 2.34 -193 2 C-193 1.67 -193 1.34 -193 1 C-168.13123418 0.86955273 -143.26246806 0.73916496 -118.39370155 0.60884857 C-106.84742849 0.54834282 -95.30115553 0.4878174 -83.75488281 0.42724609 C-73.69441256 0.3744693 -63.63394211 0.32172898 -53.57347143 0.26903296 C-48.24360794 0.24111423 -42.91374454 0.21317689 -37.58388138 0.18519592 C-32.57221818 0.15888603 -27.56055472 0.13262472 -22.54889107 0.10640144 C-20.7049655 0.09674449 -18.86104002 0.08706945 -17.01711464 0.07737541 C-14.50861256 0.06419015 -12.00011016 0.05106868 -9.49160767 0.03796387 C-8.75426222 0.03407292 -8.01691678 0.03018197 -7.25722754 0.02617311 C-2.22824242 0 -2.22824242 0 0 0 Z " fill="#FEF7E8" transform="translate(609,401)"/>
<path d="M0 0 C0.33 0 0.66 0 1 0 C1.35870303 3.85605758 1.33442938 5.52532604 -0.9375 8.75 C-1.618125 9.4925 -2.29875 10.235 -3 11 C-3.33 11.66 -3.66 12.32 -4 13 C-4.66 13 -5.32 13 -6 13 C-7.7026962 20.83763862 -8.31923516 28.3016216 -8.25 36.3125 C-8.24613281 37.40103271 -8.24226563 38.48956543 -8.23828125 39.61108398 C-8.15311601 47.55570005 -7.56383936 55.19476607 -6 63 C-5.34 63 -4.68 63 -4 63 C-3.72736328 63.85271484 -3.72736328 63.85271484 -3.44921875 64.72265625 C-2.20849218 68.53391377 -0.94019721 72.23757098 0.75 75.875 C2 79 2 79 1 82 C-10.32176003 61.82967995 -14.71811586 40.05784585 -9.05859375 17.203125 C-7.05901923 11.15275191 -4.56592872 4.56592872 0 0 Z " fill="#D57F4E" transform="translate(324,344)"/>
<path d="M0 0 C2.28062828 3.42094242 2.21925007 4.68187222 2.125 8.6875 C2.10695313 9.68136719 2.08890625 10.67523438 2.0703125 11.69921875 C2.04710937 12.45847656 2.02390625 13.21773438 2 14 C1.01 14 0.02 14 -1 14 C-1 13.34 -1 12.68 -1 12 C-1.66 12 -2.32 12 -3 12 C-3 12.66 -3 13.32 -3 14 C-3.99 14.495 -3.99 14.495 -5 15 C-5.40729228 17.32156597 -5.74438677 19.6568787 -6 22 C-6.928125 21.9175 -7.85625 21.835 -8.8125 21.75 C-12.03526794 21.66269667 -12.03526794 21.66269667 -13.8125 23.75 C-14.92860361 25.86472262 -15.58118383 27.65462942 -16 30 C-17.093125 29.649375 -18.18625 29.29875 -19.3125 28.9375 C-22.90920373 27.66960546 -22.90920373 27.66960546 -26 29 C-26.66 28.34 -27.32 27.68 -28 27 C-27.2265625 26.72027344 -26.453125 26.44054687 -25.65625 26.15234375 C-14.67792205 21.92677445 -7.70837023 16.36519857 -2 6 C-0.63206325 2.66273623 -0.63206325 2.66273623 0 0 Z " fill="#959698" transform="translate(582,450)"/>
<path d="M0 0 C1.32 0.66 2.64 1.32 4 2 C3.67 2.99 3.34 3.98 3 5 C-0.0625 6.1875 -0.0625 6.1875 -3 7 C-2.67 7.99 -2.34 8.98 -2 10 C-4.39509338 12.89932357 -6.31245243 13.50168276 -10 14 C-10.12375 15.134375 -10.2475 16.26875 -10.375 17.4375 C-10.58125 18.613125 -10.7875 19.78875 -11 21 C-13.6666419 22.33332095 -15.16680303 21.67102033 -18 21 C-15.35553024 13.60069544 -9.91949683 7.11956483 -4 2 C-1.6875 1.1875 -1.6875 1.1875 0 1 C0 0.67 0 0.34 0 0 Z " fill="#6B6B6D" transform="translate(346,498)"/>
<path d="M0 0 C0.66 0.33 1.32 0.66 2 1 C1.72285156 1.78503906 1.44570313 2.57007813 1.16015625 3.37890625 C0.79792969 4.42949219 0.43570312 5.48007812 0.0625 6.5625 C-0.29714844 7.59503906 -0.65679687 8.62757813 -1.02734375 9.69140625 C-2.9892194 16.36493508 -3.1920477 22.91363522 -3.1875 29.8125 C-3.18955444 31.14317505 -3.18955444 31.14317505 -3.19165039 32.50073242 C-3.15166631 37.86995261 -2.70486992 42.79131632 -1.37890625 48.01171875 C-0.772261 51.19504281 -1.31685039 53.85751179 -2 57 C-2.33 57 -2.66 57 -3 57 C-3 54.03 -3 51.06 -3 48 C-3.66 48 -4.32 48 -5 48 C-6.21019186 41.53739437 -6.18396947 35.24368864 -6.1875 28.6875 C-6.19974609 27.50220703 -6.21199219 26.31691406 -6.22460938 25.09570312 C-6.24041975 15.59366672 -5.91416893 7.6884196 0 0 Z " fill="#FCECD9" transform="translate(317,352)"/>
<path d="M0 0 C0.82949158 0.00960754 1.65898315 0.01921509 2.51361084 0.02911377 C5.2569628 0.06211009 8.00015584 0.10244008 10.7434082 0.14282227 C12.6448358 0.16712276 14.54626929 0.19096635 16.44770813 0.21437073 C21.45369167 0.27721866 26.45957101 0.34628337 31.4654541 0.41662598 C36.57303113 0.48730297 41.68068207 0.55212374 46.78833008 0.61743164 C56.81119777 0.74645314 66.83396516 0.88203981 76.85668945 1.02172852 C76.85668945 1.35172852 76.85668945 1.68172852 76.85668945 2.02172852 C75.44514336 2.03718971 75.44514336 2.03718971 74.00508118 2.05296326 C65.13274067 2.1507589 56.26046932 2.25349875 47.38824177 2.36106777 C42.82704856 2.41621017 38.26584885 2.46961614 33.70458984 2.51904297 C29.30197366 2.56681478 24.8994334 2.61916194 20.49690819 2.67466927 C18.81803467 2.69503483 17.13914038 2.71375731 15.46022987 2.73080254 C13.10703665 2.75497529 10.75398534 2.7850117 8.40087891 2.81640625 C7.36185928 2.82503944 7.36185928 2.82503944 6.30184937 2.83384705 C2.69615477 2.88845452 -0.62880161 3.22724497 -4.14331055 4.02172852 C-5.74634682 4.0854422 -7.35168727 4.10817065 -8.95581055 4.08422852 C-9.74600586 4.07520508 -10.53620117 4.06618164 -11.3503418 4.05688477 C-11.94202148 4.0452832 -12.53370117 4.03368164 -13.14331055 4.02172852 C-9.77636771 -1.02868574 -5.54345475 -0.09153467 0 0 Z " fill="#FEF8EB" transform="translate(371.143310546875,318.978271484375)"/>
<path d="M0 0 C5.61 0 11.22 0 17 0 C16.67 0.99 16.34 1.98 16 3 C4.81494839 3.83963615 -6.28599731 4.1286409 -17.5 4.0625 C-19.01692557 4.05746416 -20.5338528 4.05290501 -22.05078125 4.04882812 C-25.7005564 4.03801236 -29.35026679 4.02086846 -33 4 C-33 3.01 -33 2.02 -33 1 C-31.9584375 1.0721875 -30.916875 1.144375 -29.84375 1.21875 C-19.87927549 1.87540103 -9.98451481 2.12094298 0 2 C0 1.34 0 0.68 0 0 Z " fill="#717274" transform="translate(432,554)"/>
<path d="M0 0 C2.0625 0.4375 2.0625 0.4375 4 1 C4 1.66 4 2.32 4 3 C4.99 3.33 5.98 3.66 7 4 C15.06730006 13.17013321 20.8569379 22.92092272 23 35 C22.34 35 21.68 35 21 35 C20.67 32.69 20.34 30.38 20 28 C19.01 27.67 18.02 27.34 17 27 C15.19733731 23.58442859 14.781066 20.83134499 15 17 C14.01 16.67 13.02 16.34 12 16 C11.33333333 14.33333333 10.66666667 12.66666667 10 11 C9.01 10.67 8.02 10.34 7 10 C6.33333333 8.66666667 5.66666667 7.33333333 5 6 C4.01 5.67 3.02 5.34 2 5 C1.71125 5.61875 1.4225 6.2375 1.125 6.875 C0 9 0 9 -2 11 C-1.85957123 9.35369672 -1.71250671 7.70795821 -1.5625 6.0625 C-1.48128906 5.14597656 -1.40007813 4.22945313 -1.31640625 3.28515625 C-1 1 -1 1 0 0 Z " fill="#DDA050" transform="translate(641,283)"/>
<path d="M0 0 C1 2 1 2 0.125 4.6875 C-0.24625 5.780625 -0.6175 6.87375 -1 8 C-1.3496418 10.33094534 -1.68554487 12.66404762 -2 15 C-2.33 15.66 -2.66 16.32 -3 17 C-2.67 17.99 -2.34 18.98 -2 20 C-2.33 20.66 -2.66 21.32 -3 22 C-3.66 22 -4.32 22 -5 22 C-5 22.66 -5 23.32 -5 24 C-6.65 24.33 -8.3 24.66 -10 25 C-10 24.34 -10 23.68 -10 23 C-12.31 22.67 -14.62 22.34 -17 22 C-17.66 18.7 -18.32 15.4 -19 12 C-18.29875 12.721875 -17.5975 13.44375 -16.875 14.1875 C-14.07229255 16.99823813 -11.07737208 19.49516226 -8 22 C-6.37332911 20.37332911 -6.56389255 18.3005539 -6.25 16.0625 C-5.2306335 10.07176152 -2.98466165 5.25163749 0 0 Z " fill="#FAF2DE" transform="translate(346,417)"/>
<path d="M0 0 C1.32 0 2.64 0 4 0 C4.8175507 2.54013909 5.62915186 5.08193231 6.4375 7.625 C6.66759766 8.33785156 6.89769531 9.05070313 7.13476562 9.78515625 C8.41873606 13.84175851 9.41945974 17.76939625 10 22 C8.83202472 20.83202472 7.66581983 19.66223388 6.5078125 18.484375 C5.49137442 17.48373648 4.44284066 16.51481818 3.3671875 15.578125 C0.33691576 12.85527213 -0.88373896 11.42144626 -2 7.375 C-2 4.14510515 -1.7881967 2.62970103 0 0 Z " fill="#5C5C5C" transform="translate(351,676)"/>
<path d="M0 0 C0.99 0.33 1.98 0.66 3 1 C0.10594993 4.1397713 -2.75360156 6.21212393 -6.5 8.25 C-7.4384375 8.77078125 -8.376875 9.2915625 -9.34375 9.828125 C-12 11 -12 11 -16 11 C-16 11.66 -16 12.32 -16 13 C-18.22771342 13.50643553 -20.45724076 14.0048962 -22.6875 14.5 C-23.92886719 14.7784375 -25.17023437 15.056875 -26.44921875 15.34375 C-29.42398218 15.89354126 -31.99368602 16.13795705 -35 16 C-34.01 15.67 -33.02 15.34 -32 15 C-32 14.34 -32 13.68 -32 13 C-29.58424393 12.49521515 -27.16755639 11.99602358 -24.75 11.5 C-24.06808594 11.35691406 -23.38617187 11.21382813 -22.68359375 11.06640625 C-19.35366879 10.38748951 -16.41667449 10 -13 10 C-12.5359375 9.0409375 -12.5359375 9.0409375 -12.0625 8.0625 C-11 6 -11 6 -10 5 C-8.33382885 4.95936168 -6.66611905 4.957279 -5 5 C-5 4.34 -5 3.68 -5 3 C-3.35 2.67 -1.7 2.34 0 2 C0 1.34 0 0.68 0 0 Z " fill="#DE9145" transform="translate(646,384)"/>
<path d="M0 0 C5.84872844 10.91762643 4.64830094 27.85548252 1.20947266 39.40136719 C0.22613057 42.31011066 -0.83077803 45.16046092 -2 48 C-2.33 48 -2.66 48 -3 48 C-3.05395478 46.37536158 -3.09277195 44.75021459 -3.125 43.125 C-3.15980469 41.76761719 -3.15980469 41.76761719 -3.1953125 40.3828125 C-3 38 -3 38 -1 36 C0.37515925 32.30470028 0.11312084 28.50645161 0.09765625 24.609375 C0.0962413 23.90476135 0.09482635 23.20014771 0.09336853 22.47418213 C0.08778933 20.23274416 0.07524073 17.99140757 0.0625 15.75 C0.05748231 14.22656395 0.05291987 12.70312632 0.04882812 11.1796875 C0.03782674 7.45309228 0.02057646 3.72655604 0 0 Z " fill="#DF9E53" transform="translate(664,320)"/>
<path d="M0 0 C0 4.12527351 -1.49125936 5.76504496 -4 9 C-6.8612194 11.1306953 -9.77267351 12.87151111 -12.875 14.625 C-13.57625 15.07875 -14.2775 15.5325 -15 16 C-15 16.66 -15 17.32 -15 18 C-16.98 17.67 -18.96 17.34 -21 17 C-21 14 -21 14 -20 12 C-18.0902673 11.29641427 -16.17937924 10.59574433 -14.26171875 9.9140625 C-8.77033503 7.6947468 -3.94002955 4.43253324 0 0 Z " fill="#E9902F" transform="translate(630,308)"/>
<path d="M0 0 C1.32 0.33 2.64 0.66 4 1 C3.85919445 3.77117304 3.71256882 6.54182641 3.5625 9.3125 C3.52318359 10.09818359 3.48386719 10.88386719 3.44335938 11.69335938 C3.40146484 12.45068359 3.35957031 13.20800781 3.31640625 13.98828125 C3.27974854 14.68477783 3.24309082 15.38127441 3.20532227 16.09887695 C3 18 3 18 2 21 C3.32 21.33 4.64 21.66 6 22 C5.01 22.66 4.02 23.32 3 24 C2.26656572 27.06556598 2.26656572 27.06556598 2 30 C1.67 30 1.34 30 1 30 C0.25015295 25.99908596 -0.1195296 22.23250483 -0.09765625 18.1640625 C-0.09443359 17.10058594 -0.09121094 16.03710938 -0.08789062 14.94140625 C-0.07951172 13.84699219 -0.07113281 12.75257813 -0.0625 11.625 C-0.05798828 10.50738281 -0.05347656 9.38976562 -0.04882812 8.23828125 C-0.03709244 5.49213196 -0.02067363 2.74609414 0 0 Z " fill="#6B6B6B" transform="translate(313,566)"/>
<path d="M0 0 C-2.28310162 2.28310162 -3.4850934 2.52749644 -6.5625 3.3125 C-15.10449346 5.77416958 -21.48719948 10.04148037 -28 16 C-28 14.02 -28 12.04 -28 10 C-27.01 10 -26.02 10 -25 10 C-25 9.34 -25 8.68 -25 8 C-24.36191406 7.81824219 -23.72382813 7.63648438 -23.06640625 7.44921875 C-22.24011719 7.19785156 -21.41382813 6.94648438 -20.5625 6.6875 C-19.32693359 6.32205078 -19.32693359 6.32205078 -18.06640625 5.94921875 C-17.04353516 5.47935547 -17.04353516 5.47935547 -16 5 C-15.67 4.01 -15.34 3.02 -15 2 C-9.86308839 0.00813631 -5.47549707 -0.1921227 0 0 Z " fill="#E07B42" transform="translate(376,399)"/>
<path d="M0 0 C0.66 0 1.32 0 2 0 C1.80664062 0.60585938 1.61328125 1.21171875 1.4140625 1.8359375 C-0.45132504 7.83842217 -1.88159707 13.8158897 -3 20 C-8.13453033 17.51053075 -11.62228979 13.50361361 -15 9 C-15.33 8.01 -15.66 7.02 -16 6 C-13.525 6.495 -13.525 6.495 -11 7 C-10.67 8.98 -10.34 10.96 -10 13 C-8.68 13.33 -7.36 13.66 -6 14 C-6 14.66 -6 15.32 -6 16 C-5.34 16 -4.68 16 -4 16 C-3.87882812 15.09636719 -3.75765625 14.19273437 -3.6328125 13.26171875 C-3.38144531 11.49248047 -3.38144531 11.49248047 -3.125 9.6875 C-2.96257812 8.51574219 -2.80015625 7.34398437 -2.6328125 6.13671875 C-2 3 -2 3 0 0 Z " fill="#D38C62" transform="translate(342,420)"/>
<path d="M0 0 C2.475 0.99 2.475 0.99 5 2 C2.32806914 7.78918354 -0.80032397 12.24467842 -6 16 C-6.99 14.68 -7.98 13.36 -9 12 C-4.69230769 6.21538462 -4.69230769 6.21538462 -1.1875 5.125 C-0.1046875 5.063125 -0.1046875 5.063125 1 5 C1 4.01 1 3.02 1 2 C0.34 1.67 -0.32 1.34 -1 1 C-0.67 0.67 -0.34 0.34 0 0 Z " fill="#908F93" transform="translate(597,528)"/>
<path d="M0 0 C2.0625 0.4375 2.0625 0.4375 4 1 C4 1.99 4 2.98 4 4 C2.68 4 1.36 4 0 4 C-0.14695312 4.82242187 -0.29390625 5.64484375 -0.4453125 6.4921875 C-2.00173432 14.23851681 -4.148616 20.67563312 -9 27 C-9.66 27.33 -10.32 27.66 -11 28 C-11.33 27.01 -11.66 26.02 -12 25 C-11.01 24.34 -10.02 23.68 -9 23 C-7.8298011 19.96787332 -7.8298011 19.96787332 -6.9375 16.5 C-5.20305344 10.20305344 -5.20305344 10.20305344 -3 8 C-2.30643577 5.67451993 -1.63850788 3.34119555 -1 1 C-0.67 0.67 -0.34 0.34 0 0 Z " fill="#FCF4DA" transform="translate(641,280)"/>
<path d="M0 0 C0.66 0 1.32 0 2 0 C4.53906064 2.61373889 5.92256852 4.12889581 6.25 7.8125 C6.1675 8.534375 6.085 9.25625 6 10 C6.66 10 7.32 10 8 10 C8.33 15.61 8.66 21.22 9 27 C8.67 27 8.34 27 8 27 C7.34 22.05 6.68 17.1 6 12 C4.02 12 2.04 12 0 12 C0 8.04 0 4.08 0 0 Z " fill="#EC942A" transform="translate(656,308)"/>
<path d="M0 0 C3 1 3 1 4.1484375 2.765625 C5.05843277 5.15331901 5.40080214 7.20909095 5.625 9.75 C5.69976563 10.54921875 5.77453125 11.3484375 5.8515625 12.171875 C5.92503906 13.07679688 5.92503906 13.07679688 6 14 C6.33 14 6.66 14 7 14 C7.33 17.63 7.66 21.26 8 25 C7.34 25 6.68 25 6 25 C6 29.95 6 34.9 6 40 C5.67 40 5.34 40 5 40 C4.9906543 39.3922876 4.98130859 38.7845752 4.97167969 38.15844727 C4.71766544 24.93849974 3.6719991 12.72390385 0 0 Z " fill="#FBF1D6" transform="translate(662,311)"/>
<path d="M0 0 C0.33 0 0.66 0 1 0 C1.35870303 3.85605758 1.33442938 5.52532604 -0.9375 8.75 C-1.618125 9.4925 -2.29875 10.235 -3 11 C-3.33 11.66 -3.66 12.32 -4 13 C-4.66 13 -5.32 13 -6 13 C-6.12117188 13.78246094 -6.24234375 14.56492187 -6.3671875 15.37109375 C-6.53476562 16.38300781 -6.70234375 17.39492188 -6.875 18.4375 C-7.03742188 19.44683594 -7.19984375 20.45617187 -7.3671875 21.49609375 C-7.57601563 22.32238281 -7.78484375 23.14867187 -8 24 C-8.66 24.33 -9.32 24.66 -10 25 C-9.20517194 15.85947731 -5.50724076 7.329339 0 0 Z " fill="#DE8752" transform="translate(324,344)"/>
<path d="M0 0 C2.475 0.495 2.475 0.495 5 1 C5 1.99 5 2.98 5 4 C4.34 4 3.68 4 3 4 C3 4.99 3 5.98 3 7 C4.32 7.66 5.64 8.32 7 9 C6.34 10.65 5.68 12.3 5 14 C5.99 14.33 6.98 14.66 8 15 C7.01 15.66 6.02 16.32 5 17 C2.14711836 11.26769829 0.46555704 6.40140935 0 0 Z " fill="#5B5C5E" transform="translate(320,624)"/>
<path d="M0 0 C0.33 0 0.66 0 1 0 C1.19476139 2.60380996 1.38108614 5.20775533 1.5625 7.8125 C1.61857422 8.55048828 1.67464844 9.28847656 1.73242188 10.04882812 C1.95769724 13.36788516 2.06255812 15.81232564 1 19 C1 19.99 1 20.98 1 22 C1.66 22.33 2.32 22.66 3 23 C2.01 23.33 1.02 23.66 0 24 C-0.33 24.66 -0.66 25.32 -1 26 C-1.02886751 21.85418113 -1.04675327 17.70838784 -1.0625 13.5625 C-1.07087891 12.37849609 -1.07925781 11.19449219 -1.08789062 9.97460938 C-1.09111328 8.84990234 -1.09433594 7.72519531 -1.09765625 6.56640625 C-1.10289307 5.52427979 -1.10812988 4.48215332 -1.11352539 3.40844727 C-1 1 -1 1 0 0 Z " fill="#F47225" transform="translate(317,370)"/>
<path d="M0 0 C0.66 0.99 1.32 1.98 2 3 C1.1028125 3.0928125 1.1028125 3.0928125 0.1875 3.1875 C-2.25669531 3.83019399 -2.25669531 3.83019399 -3.4375 6.5 C-5 9 -5 9 -7.5625 9.625 C-8.366875 9.74875 -9.17125 9.8725 -10 10 C-10.99 11.485 -10.99 11.485 -12 13 C-12.99 12.67 -13.98 12.34 -15 12 C-13.25500253 10.36932995 -11.50441212 8.74548753 -9.75 7.125 C-9.25886719 6.66480469 -8.76773437 6.20460938 -8.26171875 5.73046875 C-5.66137976 3.33815688 -3.27924885 1.35854595 0 0 Z " fill="#DB874F" transform="translate(340,330)"/>
<path d="M0 0 C1.27230469 0.00902344 2.54460937 0.01804687 3.85546875 0.02734375 C5.31919922 0.04474609 5.31919922 0.04474609 6.8125 0.0625 C6.8125 0.3925 6.8125 0.7225 6.8125 1.0625 C5.1625 1.0625 3.5125 1.0625 1.8125 1.0625 C1.8125 1.7225 1.8125 2.3825 1.8125 3.0625 C-2.85951205 4.26818053 -7.40246292 4.15632426 -12.1875 4.0625 C-8.93601091 -0.81473363 -5.49420143 -0.05040552 0 0 Z " fill="#FBEFDB" transform="translate(370.1875,318.9375)"/>
<path d="M0 0 C1.65 0 3.3 0 5 0 C5 0.99 5 1.98 5 3 C3.21118264 4.00508801 1.41885304 5.00392736 -0.375 6 C-1.37273438 6.556875 -2.37046875 7.11375 -3.3984375 7.6875 C-6 9 -6 9 -8 9 C-8 8.01 -8 7.02 -8 6 C-2.74285714 2 -2.74285714 2 0 2 C0 1.34 0 0.68 0 0 Z " fill="#878787" transform="translate(584,543)"/>
<path d="M0 0 C2.46728428 3.25200793 4.75333364 6.59126484 7 10 C6.67 10.66 6.34 11.32 6 12 C5.34 11.67 4.68 11.34 4 11 C2.515 13.475 2.515 13.475 1 16 C-0.06723961 12.53777385 -0.10173486 9.35960734 -0.0625 5.75 C-0.04896484 4.13351562 -0.04896484 4.13351562 -0.03515625 2.484375 C-0.02355469 1.66453125 -0.01195312 0.8446875 0 0 Z " fill="#F8EEDD" transform="translate(320,417)"/>
<path d="M0 0 C-3.2990034 3.3989732 -6.71936769 6.52978744 -10.3515625 9.5703125 C-11.9783852 10.98125352 -13.49610471 12.45964664 -15 14 C-14.125 9.25 -14.125 9.25 -13 7 C-12.01 7 -11.02 7 -10 7 C-10 6.01 -10 5.02 -10 4 C-7.01264982 -0.02143293 -4.89710891 -0.44519172 0 0 Z " fill="#FDEED6" transform="translate(338,331)"/>
<path d="M0 0 C-4.8125966 2.6950541 -9.93068633 3.93806259 -15.375 4.5625 C-18.8036937 4.59793141 -18.8036937 4.59793141 -20 6 C-22.67058851 6.14115161 -25.32432238 6.04247107 -28 6 C-19.83321456 0.55547637 -9.57402079 -0.08472585 0 0 Z " fill="#D88F58" transform="translate(372,322)"/>
<path d="M0 0 C1.4049404 3.89060419 0.69513239 7.23092362 0.0625 11.25 C-0.13214844 12.51328125 -0.32679688 13.7765625 -0.52734375 15.078125 C-0.76130859 16.52445313 -0.76130859 16.52445313 -1 18 C-1.66 17.67 -2.32 17.34 -3 17 C-2.67 15.02 -2.34 13.04 -2 11 C-2.99 10.67 -3.98 10.34 -5 10 C-4.7215625 9.1028125 -4.7215625 9.1028125 -4.4375 8.1875 C-3.77906313 5.83591238 -3.77906313 5.83591238 -5 3 C-4.360625 2.87625 -3.72125 2.7525 -3.0625 2.625 C-2.0415625 2.315625 -2.0415625 2.315625 -1 2 C-0.67 1.34 -0.34 0.68 0 0 Z " fill="#616263" transform="translate(349,596)"/>
<path d="M0 0 C0.33 0 0.66 0 1 0 C1.98593711 9.2020797 -1.55849588 16.652304 -5 25 C-6.03366148 21.25297715 -6.25733598 18.77200794 -5 15 C-4.34 15 -3.68 15 -3 15 C-3 13.02 -3 11.04 -3 9 C-2.34 8.67 -1.68 8.34 -1 8 C-1.020625 6.865625 -1.04125 5.73125 -1.0625 4.5625 C-1 1 -1 1 0 0 Z " fill="#9B9C9E" transform="translate(609,503)"/>
<path d="M0 0 C0.33 0 0.66 0 1 0 C0.67 3.3 0.34 6.6 0 10 C0.66 10 1.32 10 2 10 C2 10.99 2 11.98 2 13 C1.443125 12.79375 0.88625 12.5875 0.3125 12.375 C-2.5234293 11.71132175 -2.5234293 11.71132175 -7 14 C-4.69 9.38 -2.38 4.76 0 0 Z M3 8 C3.33 8.66 3.66 9.32 4 10 C3.34 9.67 2.68 9.34 2 9 C2.33 8.67 2.66 8.34 3 8 Z " fill="#E29F4D" transform="translate(638,294)"/>
<path d="M0 0 C2.96052484 3.36423277 3.92289822 6.69159287 5 11 C4.34 11 3.68 11 3 11 C2.67 12.98 2.34 14.96 2 17 C1.34 16.67 0.68 16.34 0 16 C0.01160156 15.24074219 0.02320313 14.48148437 0.03515625 13.69921875 C0.04417969 12.70535156 0.05320312 11.71148437 0.0625 10.6875 C0.07990234 9.20830078 0.07990234 9.20830078 0.09765625 7.69921875 C0.12329862 4.90036151 0.12329862 4.90036151 -1 2 C-0.67 1.34 -0.34 0.68 0 0 Z " fill="#9E9EA2" transform="translate(601,459)"/>
<path d="M0 0 C3.3 0 6.6 0 10 0 C6.99559979 2.00293347 5.29006055 2.49271626 1.8125 3.125 C0.46091797 3.37636719 0.46091797 3.37636719 -0.91796875 3.6328125 C-1.60503906 3.75398438 -2.29210937 3.87515625 -3 4 C-3.33 4.99 -3.66 5.98 -4 7 C-5.65 7.33 -7.3 7.66 -9 8 C-8.67 6.68 -8.34 5.36 -8 4 C-6.865625 3.71125 -5.73125 3.4225 -4.5625 3.125 C-3.386875 2.75375 -2.21125 2.3825 -1 2 C-0.67 1.34 -0.34 0.68 0 0 Z " fill="#FBE9D1" transform="translate(347,323)"/>
<path d="M0 0 C1 2 1 2 0.125 4.6875 C-0.24625 5.780625 -0.6175 6.87375 -1 8 C-1.185625 9.85625 -1.185625 9.85625 -1.375 11.75 C-2 15 -2 15 -4.0625 16.4375 C-4.701875 16.623125 -5.34125 16.80875 -6 17 C-5.57664615 10.50857435 -3.08900201 5.66507011 0 0 Z " fill="#FAE0CC" transform="translate(346,417)"/>
<path d="M0 0 C-5.7182822 4.80335705 -11.74932054 6.36397549 -19 7 C-16 5 -16 5 -12 5 C-11.67 4.01 -11.34 3.02 -11 2 C-7.55152617 -0.52003857 -4.13426005 -0.15901 0 0 Z " fill="#FDEECE" transform="translate(624,314)"/>
<path d="M0 0 C0.33 0.99 0.66 1.98 1 3 C0.01 3.33 -0.98 3.66 -2 4 C-1.67 5.65 -1.34 7.3 -1 9 C-2.32 9 -3.64 9 -5 9 C-5.33 9.99 -5.66 10.98 -6 12 C-7.39864092 8.82127065 -6.89282517 7.69888978 -5.6875 4.3125 C-3.49056604 0 -3.49056604 0 0 0 Z " fill="#6A6B6D" transform="translate(327,525)"/>
<path d="M0 0 C-0.33 0.66 -0.66 1.32 -1 2 C-2.65 2 -4.3 2 -6 2 C-6 2.66 -6 3.32 -6 4 C-5.01 4.66 -4.02 5.32 -3 6 C-5.97 6.66 -8.94 7.32 -12 8 C-12.33 7.01 -12.66 6.02 -13 5 C-12.01 4.67 -11.02 4.34 -10 4 C-10 3.34 -10 2.68 -10 2 C-6.3558226 -0.4294516 -4.28758728 -0.16179575 0 0 Z " fill="#E97B35" transform="translate(351,328)"/>
<path d="M0 0 C0.99 0.33 1.98 0.66 3 1 C2.67 1.66 2.34 2.32 2 3 C2.7734375 3.61875 2.7734375 3.61875 3.5625 4.25 C4.036875 4.8275 4.51125 5.405 5 6 C4.75 7.9375 4.75 7.9375 4 10 C3.814375 10.7425 3.62875 11.485 3.4375 12.25 C3.293125 12.8275 3.14875 13.405 3 14 C2.34 14 1.68 14 1 14 C0.04738513 9.23692563 -0.08333357 4.8333472 0 0 Z " fill="#5B5B5B" transform="translate(315,598)"/>
<path d="M0 0 C0.99 0.33 1.98 0.66 3 1 C2.88638398 3.79256219 2.7596411 6.58344118 2.625 9.375 C2.5940625 10.1690625 2.563125 10.963125 2.53125 11.78125 C2.2265625 17.7734375 2.2265625 17.7734375 0 20 C0 13.4 0 6.8 0 0 Z " fill="#5C5C5C" transform="translate(314,566)"/>
<path d="M0 0 C3.56311466 1.78155733 5.35645475 3.16763009 8 6 C7.2575 6.103125 6.515 6.20625 5.75 6.3125 C2.56949927 6.91864951 2.56949927 6.91864951 -1 10 C-0.67 6.7 -0.34 3.4 0 0 Z " fill="#9A9A9A" transform="translate(584,440)"/>
<path d="M0 0 C-1.6626368 3.9298688 -4.0261902 6.95703183 -7 10 C-9.8125 10.375 -9.8125 10.375 -12 10 C-3.78082192 0 -3.78082192 0 0 0 Z " fill="#FAEDD7" transform="translate(360,406)"/>
<path d="M0 0 C0.99 0 1.98 0 3 0 C3 0.66 3 1.32 3 2 C4.98 1.34 6.96 0.68 9 0 C9.66 0.66 10.32 1.32 11 2 C8.47043472 5.0916909 5.77545388 5.90931332 2 7 C2 5.35 2 3.7 2 2 C1.34 2 0.68 2 0 2 C0 1.34 0 0.68 0 0 Z " fill="#F2732B" transform="translate(350,400)"/>
<path d="M0 0 C0.99 0 1.98 0 3 0 C1.58399311 6.13602988 -2.0663375 10.26698362 -6 15 C-7 12 -7 12 -6 9 C-5.01 9 -4.02 9 -3 9 C-2.814375 8.1646875 -2.814375 8.1646875 -2.625 7.3125 C-1.94023145 4.77885636 -1.00866237 2.42078968 0 0 Z " fill="#D9984A" transform="translate(658,368)"/>
<path d="M0 0 C1.51204208 2.95566597 2.89596402 5.94134439 4.1875 9 C4.55230469 9.845625 4.91710937 10.69125 5.29296875 11.5625 C6.05799936 14.19995359 5.92485503 15.45517596 5 18 C0.59225513 9.738041 0.59225513 9.738041 0 5 C-0.99 5.495 -0.99 5.495 -2 6 C-1.49396008 3.83125748 -1.00016187 2.00032373 0 0 Z " fill="#6D6D6D" transform="translate(355,680)"/>
<path d="M0 0 C3 0 3 0 5.125 1.875 C7.68918168 6.14863614 7.8094807 10.09412807 8 15 C6.35679609 12.53519414 4.87960352 10.08287198 3.4375 7.5 C3.00308594 6.7265625 2.56867187 5.953125 2.12109375 5.15625 C1 3 1 3 0 0 Z " fill="#FDEFD0" transform="translate(653,293)"/>
<path d="M0 0 C0.99 0.99 1.98 1.98 3 3 C0.4389456 5.5610544 -0.94185713 5.40191222 -4.5 5.6875 C-5.4796875 5.77386719 -6.459375 5.86023438 -7.46875 5.94921875 C-10 6 -10 6 -12 5 C-12 3.68 -12 2.36 -12 1 C-11.34 1 -10.68 1 -10 1 C-9.34 1.99 -8.68 2.98 -8 4 C-5.41619823 4.25030977 -5.41619823 4.25030977 -3 4 C-2.67 3.01 -2.34 2.02 -2 1 C-2 1.99 -2 2.98 -2 4 C-1.34 4 -0.68 4 0 4 C0 2.68 0 1.36 0 0 Z " fill="#696A6C" transform="translate(396,552)"/>
<path d="M0 0 C3.59930552 2.62652025 6.07666989 4.93963643 8 9 C7.67 9.66 7.34 10.32 7 11 C6.401875 10.690625 5.80375 10.38125 5.1875 10.0625 C2.91043228 8.89790296 2.91043228 8.89790296 0 8 C0 5.36 0 2.72 0 0 Z " fill="#9B9A9F" transform="translate(592,447)"/>
<path d="M0 0 C0.33 1.32 0.66 2.64 1 4 C-5.07439825 8.90153173 -5.07439825 8.90153173 -8.9375 9.3125 C-9.9584375 9.1578125 -9.9584375 9.1578125 -11 9 C-8.31158141 6.74754119 -6.35358125 5.11786042 -3 4 C-2.67 3.01 -2.34 2.02 -2 1 C-1.34 0.67 -0.68 0.34 0 0 Z " fill="#FCE9C8" transform="translate(651,383)"/>
<path d="M0 0 C0.89674777 2.51089376 1.13172674 3.64535109 0.1875 6.1875 C-1 8 -1 8 -3 9 C-3.28875 9.825 -3.5775 10.65 -3.875 11.5 C-4.431875 12.7375 -4.431875 12.7375 -5 14 C-7.0703125 14.65625 -7.0703125 14.65625 -9 15 C-8.51789062 14.25234375 -8.03578125 13.5046875 -7.5390625 12.734375 C-6.90742187 11.74953125 -6.27578125 10.7646875 -5.625 9.75 C-4.99851562 8.77546875 -4.37203125 7.8009375 -3.7265625 6.796875 C-2.34865148 4.56478385 -1.11687358 2.36912578 0 0 Z " fill="#FAE8C3" transform="translate(661,368)"/>
<path d="M0 0 C0 3.67718093 -0.82184858 5.07076189 -3 8 C-5.68455435 9.51436399 -7.11976264 10.18782642 -10.16015625 9.5390625 C-10.76730469 9.36117188 -11.37445312 9.18328125 -12 9 C-11.20335937 8.52820313 -11.20335937 8.52820313 -10.390625 8.046875 C-6.48458848 5.68044412 -3.06395074 3.44694458 0 0 Z " fill="#DEA155" transform="translate(630,308)"/>
<path d="M0 0 C0 1.32 0 2.64 0 4 C0.66 4.33 1.32 4.66 2 5 C1.01 6.485 1.01 6.485 0 8 C-0.66 8 -1.32 8 -2 8 C-2 7.01 -2 6.02 -2 5 C-3.32 4.67 -4.64 4.34 -6 4 C-2.25 0 -2.25 0 0 0 Z " fill="#EB9034" transform="translate(635,307)"/>
<path d="M0 0 C-4.72194167 3.77755334 -9.25928072 3.30096975 -15 3 C-12.22199328 1.14799552 -10.66558555 0.5142048 -7.5 -0.1875 C-6.7265625 -0.36667969 -5.953125 -0.54585938 -5.15625 -0.73046875 C-3 -1 -3 -1 0 0 Z " fill="#E19641" transform="translate(625,318)"/>
<path d="M0 0 C2.3125 0.1875 2.3125 0.1875 5 1 C6.875 3.375 6.875 3.375 8 6 C7.67 6.99 7.34 7.98 7 9 C5.14453125 6.70507812 5.14453125 6.70507812 3.2890625 4.41015625 C2.0333609 2.86733563 2.0333609 2.86733563 0 2 C0 1.34 0 0.68 0 0 Z " fill="#FDEED0" transform="translate(645,284)"/>
<path d="M0 0 C1.65 0.99 3.3 1.98 5 3 C4.625 5.4375 4.625 5.4375 4 8 C3.01 8.495 3.01 8.495 2 9 C2 8.01 2 7.02 2 6 C1.34 6 0.68 6 0 6 C0 4.02 0 2.04 0 0 Z " fill="#F3901E" transform="translate(635,305)"/>
<path d="M0 0 C1.98 0 3.96 0 6 0 C5.01 0.33 4.02 0.66 3 1 C3 2.98 3 4.96 3 7 C1.68 6.67 0.36 6.34 -1 6 C-0.67 4.02 -0.34 2.04 0 0 Z " fill="#F2702D" transform="translate(345,408)"/>
<path d="M0 0 C0.33 0 0.66 0 1 0 C1.19392201 5.52677733 0.7479503 9.75614911 -1 15 C-1.99 15 -2.98 15 -4 15 C-3.79503906 14.25234375 -3.59007812 13.5046875 -3.37890625 12.734375 C-3.10949219 11.74953125 -2.84007812 10.7646875 -2.5625 9.75 C-2.29566406 8.77546875 -2.02882813 7.8009375 -1.75390625 6.796875 C-1.14455416 4.53627347 -0.55761745 2.27377991 0 0 Z " fill="#F9EBCA" transform="translate(666,352)"/>
<path d="M0 0 C2.0625 1.75 2.0625 1.75 4 4 C3.75 6.25 3.75 6.25 3 8 C2.67 7.67 2.34 7.34 2 7 C1.01 7.99 0.02 8.98 -1 10 C-1.125 3.375 -1.125 3.375 0 0 Z " fill="#5E5E5E" transform="translate(315,555)"/>
<path d="M0 0 C-0.33 0.99 -0.66 1.98 -1 3 C-3.31 3 -5.62 3 -8 3 C-8 3.66 -8 4.32 -8 5 C-9.98 5 -11.96 5 -14 5 C-12.68 4.67 -11.36 4.34 -10 4 C-10 3.34 -10 2.68 -10 2 C-8.71211992 1.46987262 -7.41953322 0.9511671 -6.125 0.4375 C-5.40570312 0.14746094 -4.68640625 -0.14257812 -3.9453125 -0.44140625 C-2 -1 -2 -1 0 0 Z " fill="#FAE0BC" transform="translate(640,393)"/>
<path d="M0 0 C0.66 0.33 1.32 0.66 2 1 C1.1875 3.4375 1.1875 3.4375 0 6 C-0.99 6.33 -1.98 6.66 -3 7 C-3.66 5.35 -4.32 3.7 -5 2 C-2.625 0.9375 -2.625 0.9375 0 0 Z " fill="#898A8E" transform="translate(593,537)"/>
<path d="M0 0 C0.66 0 1.32 0 2 0 C1.54636829 1.58468677 1.08688548 3.16769924 0.625 4.75 C0.36976563 5.63171875 0.11453125 6.5134375 -0.1484375 7.421875 C-0.9209934 9.76080572 -1.83625676 11.83442562 -3 14 C-2.88570603 12.22844346 -2.75816963 10.45773771 -2.625 8.6875 C-2.55539062 7.70136719 -2.48578125 6.71523438 -2.4140625 5.69921875 C-2 3 -2 3 0 0 Z " fill="#D47948" transform="translate(342,420)"/>
<path d="M0 0 C0.33 0 0.66 0 1 0 C1.17835515 4.54805635 0.99785435 7.8794254 -1 12 C-1.33 12 -1.66 12 -2 12 C-2.05395478 10.37536158 -2.09277195 8.75021459 -2.125 7.125 C-2.14820313 6.22007812 -2.17140625 5.31515625 -2.1953125 4.3828125 C-2 2 -2 2 0 0 Z " fill="#DC9643" transform="translate(663,356)"/>
<path d="M0 0 C3 1 3 1 4.25 2.5625 C5.3813806 6.23948695 4.62965552 9.2220669 4 13 C2.42445965 10.11371599 1.53723627 7.46657616 0.875 4.25 C0.70742188 3.45078125 0.53984375 2.6515625 0.3671875 1.828125 C0.24601563 1.22484375 0.12484375 0.6215625 0 0 Z " fill="#FCE8C8" transform="translate(662,311)"/>
<path d="M0 0 C2.475 0.99 2.475 0.99 5 2 C5 3.32 5 4.64 5 6 C3.02 6.99 3.02 6.99 1 8 C0.67 5.36 0.34 2.72 0 0 Z " fill="#F2941A" transform="translate(647,294)"/>
<path d="M0 0 C0.33 0.99 0.66 1.98 1 3 C1.99 3 2.98 3 4 3 C3.67 3.99 3.34 4.98 3 6 C0.03 5.505 0.03 5.505 -3 5 C-3 3.68 -3 2.36 -3 1 C-2.01 0.67 -1.02 0.34 0 0 Z " fill="#E97A2F" transform="translate(328,342)"/>
<path d="M0 0 C-0.33 0.99 -0.66 1.98 -1 3 C1.97 3.495 1.97 3.495 5 4 C5 4.33 5 4.66 5 5 C-2.42857143 5.28571429 -2.42857143 5.28571429 -6 3 C-4.60722783 0.21445565 -3.01148006 0 0 0 Z " fill="#8B8C8E" transform="translate(557,552)"/>
<path d="M0 0 C0.66 0 1.32 0 2 0 C3.2380014 3.57644848 2.74926071 6.33694766 2 10 C1.34 10 0.68 10 0 10 C-0.74926071 6.33694766 -1.2380014 3.57644848 0 0 Z " fill="#696969" transform="translate(317,542)"/>
<path d="M0 0 C2 0.6875 2 0.6875 4 2.6875 C-1.94 3.1825 -1.94 3.1825 -8 3.6875 C-2.55172414 -0.3987069 -2.55172414 -0.3987069 0 0 Z " fill="#FAE7CB" transform="translate(368,402.3125)"/>
<path d="M0 0 C1.5 1.125 1.5 1.125 3 3 C3.1875 6.1875 3.1875 6.1875 3 9 C2.01 9.495 2.01 9.495 1 10 C-0.1577506 6.52674819 -0.06866652 3.63932552 0 0 Z " fill="#ED702B" transform="translate(317,397)"/>
<path d="M0 0 C0.66 0 1.32 0 2 0 C2 2.64 2 5.28 2 8 C1.34 8 0.68 8 0 8 C-0.38063221 5.6739143 -0.71269945 3.33944736 -1 1 C-0.67 0.67 -0.34 0.34 0 0 Z " fill="#F28E23" transform="translate(659,360)"/>
<path d="M0 0 C0.99 0 1.98 0 3 0 C2.67 1.65 2.34 3.3 2 5 C0.68 5 -0.64 5 -2 5 C-1.125 1.125 -1.125 1.125 0 0 Z " fill="#FA7324" transform="translate(331,340)"/>
<path d="M0 0 C1.65 0 3.3 0 5 0 C5 0.99 5 1.98 5 3 C3.02 3.99 3.02 3.99 1 5 C0.34 4.34 -0.32 3.68 -1 3 C-0.67 2.01 -0.34 1.02 0 0 Z " fill="#8D8D8E" transform="translate(584,543)"/>
<path d="M0 0 C0.66 0 1.32 0 2 0 C2.125 5.75 2.125 5.75 1 8 C0.34 8 -0.32 8 -1 8 C-2.2077558 4.37673261 -1.54311128 3.35853631 0 0 Z " fill="#EA6F2E" transform="translate(337,428)"/>
<path d="M0 0 C2.475 0.495 2.475 0.495 5 1 C5.33 2.65 5.66 4.3 6 6 C5.01 6 4.02 6 3 6 C2.01 4.02 1.02 2.04 0 0 Z " fill="#D67C46" transform="translate(326,426)"/>
<path d="M0 0 C0.99 0 1.98 0 3 0 C2.25 2.4375 2.25 2.4375 1 5 C-1.125 5.8125 -1.125 5.8125 -3 6 C-3 5.34 -3 4.68 -3 4 C-2.34 4 -1.68 4 -1 4 C-0.67 2.68 -0.34 1.36 0 0 Z " fill="#686868" transform="translate(357,576)"/>
<path d="M0 0 C0.99 0.99 1.98 1.98 3 3 C1.625 5 1.625 5 0 7 C-0.66 7 -1.32 7 -2 7 C-1.125 1.125 -1.125 1.125 0 0 Z " fill="#717172" transform="translate(335,507)"/>
<path d="M0 0 C0.33 0 0.66 0 1 0 C1.8125 2.6875 1.8125 2.6875 2 6 C-0.4375 8.875 -0.4375 8.875 -3 11 C-2.01 7.37 -1.02 3.74 0 0 Z " fill="#FAF9EF" transform="translate(347,416)"/>
<path d="M0 0 C0.99 0.33 1.98 0.66 3 1 C-0.465 3.97 -0.465 3.97 -4 7 C-3.67 5.35 -3.34 3.7 -3 2 C-2.01 2 -1.02 2 0 2 C0 1.34 0 0.68 0 0 Z " fill="#D3885A" transform="translate(352,408)"/>
<path d="M0 0 C0.99 0.99 1.98 1.98 3 3 C2.67 3.99 2.34 4.98 2 6 C1.34 6 0.68 6 0 6 C-0.33 6.66 -0.66 7.32 -1 8 C-1.04241723 5.66705225 -1.04092937 3.33297433 -1 1 C-0.67 0.67 -0.34 0.34 0 0 Z " fill="#FAF4F0" transform="translate(341,433)"/>
<path d="M0 0 C0.66 0 1.32 0 2 0 C1.67 1.98 1.34 3.96 1 6 C0.01 6 -0.98 6 -2 6 C-2.33 5.01 -2.66 4.02 -3 3 C-2.01 2.67 -1.02 2.34 0 2 C0 1.34 0 0.68 0 0 Z " fill="#5A5A5A" transform="translate(334,652)"/>
<path d="M0 0 C1.99097846 2.98646769 2.94124926 5.59687262 4 9 C3.01 9 2.02 9 1 9 C0.67 6.03 0.34 3.06 0 0 Z " fill="#FBE5CA" transform="translate(316,407)"/>
<path d="M0 0 C-5.14285714 4.42857143 -5.14285714 4.42857143 -9 5 C-9 4.34 -9 3.68 -9 3 C-6.04341306 0.15291628 -4.05047276 -0.3375394 0 0 Z " fill="#D59651" transform="translate(642,390)"/>
<path d="M0 0 C0.78375 0.04125 1.5675 0.0825 2.375 0.125 C2.375 1.115 2.375 2.105 2.375 3.125 C0.065 2.795 -2.245 2.465 -4.625 2.125 C-2.625 0.125 -2.625 0.125 0 0 Z " fill="#F2FEF7" transform="translate(334.625,327.875)"/>
</svg>
